<mxfile host="app.diagrams.net" modified="2024-05-24T16:52:03.066Z" agent="Mozilla/5.0 (Windows NT 10.0; Win64; x64; rv:126.0) Gecko/20100101 Firefox/126.0" version="24.2.7" etag="QvYdfONrzxGaMiBCUq0j" type="github">
  <diagram name="Page-1" id="2ZAIfkSiM7R4ecjNsEXI">
    <mxGraphModel>
      <root>
        <mxCell id="0" />
        <mxCell id="1" parent="0" />
      </root>
    </mxGraphModel>
  </diagram>
</mxfile>
